<?xml version="1.0" encoding="utf-8"?>
<!-- Generator: Adobe Illustrator 16.0.0, SVG Export Plug-In . SVG Version: 6.00 Build 0)  -->
<!DOCTYPE svg PUBLIC "-//W3C//DTD SVG 1.1//EN" "http://www.w3.org/Graphics/SVG/1.1/DTD/svg11.dtd">
<svg version="1.1" id="Layer_1" xmlns="http://www.w3.org/2000/svg" xmlns:xlink="http://www.w3.org/1999/xlink" x="0px" y="0px"
	 width="202.032px" height="24.334px" viewBox="-1.865 2.833 202.032 24.334" enable-background="new -1.865 2.833 202.032 24.334"
	 xml:space="preserve">
<g>
	<path d="M6.428,11.285c5.379,0,7.94,2.53,7.94,7.716c0,5.251-2.433,8.165-8.133,8.165c-5.379,0-8.101-2.885-8.101-7.876
		C-1.865,14.039,1.273,11.285,6.428,11.285z M8.221,17.817c0-3.458-0.096-5.955-1.89-5.955c-1.953,0-2.049,2.497-2.049,6.115v2.498
		c0,3.711,0.063,6.113,2.017,6.113c1.825,0,1.921-1.889,1.921-6.053V17.817z"/>
	<path d="M22.379,2.833v23.435h1.793v0.578h-9.51v-0.578h1.761V3.41h-1.889V2.833H22.379z"/>
	<path d="M32.622,11.605v14.663h1.794v0.576h-9.51v-0.576h1.761V12.182h-1.89v-0.577H32.622z M29.74,3.44
		c1.985,0,3.17,0.993,3.17,2.946c0,1.697-0.929,3.01-3.234,3.01c-2.593,0-3.202-1.634-3.202-2.978
		C26.475,4.85,27.339,3.44,29.74,3.44z"/>
	<path d="M34.069,11.605h9.574v0.577h-2.018l3.843,10.629l3.458-10.629h-2.145v-0.577h4.322v0.577h-1.408l-4.738,14.663h-3.65
		l-5.924-14.663h-1.313v-0.577H34.069z"/>
	<path d="M59.494,11.605v14.663h1.793v0.576h-9.51v-0.576h1.762V12.182H51.65v-0.577H59.494z M56.613,3.44
		c1.985,0,3.169,0.993,3.169,2.946c0,1.697-0.928,3.01-3.233,3.01c-2.594,0-3.202-1.634-3.202-2.978
		C53.347,4.85,54.213,3.44,56.613,3.44z"/>
	<path d="M70.042,19.322v-2.467c0-4.065-0.353-5.121-1.633-5.121c-0.577,0-1.504,0.256-1.504,1.281c0,0.255,0.063,0.576,0.191,0.928
		h0.801c0.16,0.417,0.256,0.833,0.256,1.441c0,1.505-1.217,2.498-2.817,2.498c-1.985,0-2.754-1.088-2.754-2.658
		c0-2.689,2.337-3.938,6.692-3.938c5.026,0,6.723,1.409,6.723,6.052v6.497c0,1.314,0.384,1.666,0.929,1.666
		c0.576,0,1.121-0.607,1.281-3.297l0.48,0.029c-0.161,3.844-1.345,4.934-4.099,4.934c-2.594,0-4.034-0.801-4.418-2.371
		c-0.513,1.537-1.441,2.371-3.683,2.371c-2.241,0-4.739-0.674-4.739-3.877c0-3.232,2.786-3.969,7.363-3.969L70.042,19.322
		L70.042,19.322z M70.042,22.811v-2.979h-0.225c-1.345,0-1.985,0.961-1.985,2.914v0.512c0,2.305,0.225,2.625,0.833,2.625
		C69.273,25.883,70.042,24.86,70.042,22.811z"/>
	<path d="M86.566,11.605v14.663h1.793v0.576H78.85v-0.576h1.761V12.182h-1.889v-0.577H86.566z M83.684,3.44
		c1.985,0,3.17,0.993,3.17,2.946c0,1.697-0.928,3.01-3.234,3.01c-2.593,0-3.202-1.634-3.202-2.978
		C80.419,4.85,81.283,3.44,83.684,3.44z"/>
	<path d="M89.466,21.434h0.385c1.185,3.906,3.138,5.027,5.762,5.027c2.369,0,3.267-0.865,3.267-2.082
		c0-1.441-1.569-1.76-4.002-2.434c-2.562-0.703-5.412-1.695-5.412-5.249c0-3.267,2.241-5.412,5.635-5.412
		c1.409,0,2.369,0.353,3.234,0.737c0.385,0.16,0.512,0.255,0.897,0.255c0.48,0,0.704-0.255,1.12-1.056h0.352v4.898h-0.383
		c-1.153-2.945-2.786-4.161-5.06-4.161c-2.113,0-2.978,0.865-2.978,1.857c0,1.473,1.921,1.825,4.035,2.401
		c2.529,0.672,5.346,1.697,5.346,5.475c0,3.65-2.369,5.475-5.986,5.475c-1.537,0-2.626-0.32-3.842-0.93
		c-0.192-0.125-0.48-0.256-0.608-0.256c-0.417,0-0.864,0.289-1.376,1.186h-0.385L89.466,21.434L89.466,21.434z"/>
	<path d="M111.001,19.322v-2.467c0-4.065-0.354-5.121-1.633-5.121c-0.576,0-1.504,0.256-1.504,1.281
		c0,0.255,0.063,0.576,0.193,0.928h0.801c0.158,0.417,0.254,0.833,0.254,1.441c0,1.505-1.219,2.498-2.818,2.498
		c-1.984,0-2.754-1.088-2.754-2.658c0-2.689,2.336-3.938,6.691-3.938c5.027,0,6.725,1.409,6.725,6.052v6.497
		c0,1.314,0.385,1.666,0.93,1.666c0.576,0,1.119-0.607,1.279-3.297l0.48,0.029c-0.158,3.844-1.346,4.934-4.098,4.934
		c-2.594,0-4.035-0.801-4.42-2.371c-0.512,1.537-1.441,2.371-3.682,2.371s-4.738-0.674-4.738-3.877c0-3.232,2.785-3.969,7.363-3.969
		L111.001,19.322L111.001,19.322z M111.001,22.811v-2.979h-0.227c-1.344,0-1.982,0.961-1.982,2.914v0.512
		c0,2.305,0.225,2.625,0.83,2.625C110.232,25.883,111.001,24.86,111.001,22.811z"/>
	<path d="M127.529,17.69v8.578h2.271v0.578h-9.988v-0.578h1.762V12.182h-1.762v-0.577h7.717v3.074
		c0.576-2.273,2.369-3.394,4.291-3.394c1.889,0,3.395,0.992,3.395,3.426c0,1.825-0.961,3.042-2.691,3.042
		c-2.145,0-3.17-1.345-2.496-3.619h1.152c0.641-1.313,0-1.632-0.674-1.632C128.97,12.502,127.529,14.807,127.529,17.69z"/>
	<path d="M144.056,11.285c5.381,0,7.941,2.53,7.941,7.716c0,5.251-2.436,8.165-8.135,8.165c-5.377,0-8.1-2.885-8.1-7.876
		C135.763,14.039,138.902,11.285,144.056,11.285z M145.849,17.817c0-3.458-0.096-5.955-1.889-5.955
		c-1.953,0-2.051,2.497-2.051,6.115v2.498c0,3.711,0.066,6.113,2.02,6.113c1.824,0,1.92-1.889,1.92-6.053V17.817L145.849,17.817z"/>
	<path d="M160.037,14.039c0.703-1.601,1.855-2.754,4.291-2.754c3.65,0,5.859,2.498,5.859,7.972c0,5.476-2.242,7.909-6.598,7.909
		c-2.207,0-3.297-0.607-3.744-2.209l-0.225,1.889h-7.301V26.27h1.76V3.41h-1.76V2.833h7.717V14.039L160.037,14.039z M160.037,16.985
		v5.955c0,1.729,0.738,3.297,2.082,3.297c1.568,0,1.889-1.889,1.889-6.338v-1.666c0-4.512-0.383-5.57-1.473-5.57
		C161.222,12.662,160.037,14.199,160.037,16.985z"/>
	<path d="M179.611,11.285c5.379,0,7.939,2.53,7.939,7.716c0,5.251-2.434,8.165-8.133,8.165c-5.379,0-8.1-2.885-8.1-7.876
		C171.32,14.039,174.455,11.285,179.611,11.285z M181.402,17.817c0-3.458-0.096-5.955-1.889-5.955c-1.953,0-2.049,2.497-2.049,6.115
		v2.498c0,3.711,0.064,6.113,2.018,6.113c1.824,0,1.92-1.889,1.92-6.053V17.817z"/>
	<path d="M189.464,12.182h-1.76v-0.577h1.76v-4.13l5.955-1.473v5.603h4.16v0.577h-4.16v10.79c0,1.889,0.289,2.912,1.406,2.912
		c1.537,0,2.498-1.408,2.787-3.586l0.545,0.064c-0.291,2.498-1.346,4.805-5.252,4.805c-3.17,0-5.443-0.932-5.443-4.9V12.182H189.464
		z"/>
</g>
</svg>
