<?xml version="1.0" encoding="utf-8"?>
<!-- Generator: Adobe Illustrator 16.0.0, SVG Export Plug-In . SVG Version: 6.00 Build 0)  -->
<!DOCTYPE svg PUBLIC "-//W3C//DTD SVG 1.1//EN" "http://www.w3.org/Graphics/SVG/1.1/DTD/svg11.dtd">
<svg version="1.1" id="Layer_1" xmlns="http://www.w3.org/2000/svg" xmlns:xlink="http://www.w3.org/1999/xlink" x="0px" y="0px"
	 width="229.677px" height="157.75px" viewBox="135.161 171.125 229.677 157.75"
	 enable-background="new 135.161 171.125 229.677 157.75" xml:space="preserve">
<g>
	<path fill="#2C313B" d="M173.162,208.625c-6.525,0-12.42,3.577-16.966,9.574c-0.745-1.429-1.683-2.825-2.875-4.1
		c-3.347-3.581-8.07-5.474-13.66-5.474c-2.485,0-4.5,2.015-4.5,4.5s2.015,4.5,4.5,4.5c3.105,0,5.415,0.849,7.061,2.594
		c2.712,2.876,3.249,7.83,3.237,10.14c-1.948,5.813-3.048,12.486-3.048,19.641c0,23.201,11.53,41.375,26.25,41.375
		c14.72,0,26.25-18.174,26.25-41.375S187.882,208.625,173.162,208.625z M173.162,282.375c-9.351,0-17.25-14.826-17.25-32.375
		c0-6.331,1.032-12.303,2.786-17.357c0.029-0.088,0.067-0.17,0.09-0.26c3.121-8.813,8.455-14.758,14.375-14.758
		c9.351,0,17.25,14.826,17.25,32.375S182.513,282.375,173.162,282.375z"/>
	<path fill="#2C313B" d="M232.75,175.625c0-2.485-2.015-4.5-4.5-4.5c-7.467,0-21.588,5.649-21.588,27.03v88.72
		c0,2.484,2.015,4.5,4.5,4.5c2.485,0,4.5-2.016,4.5-4.5v-88.72c0-17.229,11.303-18,12.628-18.03
		C230.757,180.104,232.75,178.097,232.75,175.625z"/>
	<circle fill="#2C313B" cx="211.162" cy="305.458" r="5"/>
	<circle fill="#2C313B" cx="228.25" cy="194.542" r="5"/>
	<path fill="#2C313B" d="M288.838,208.625c-2.484,0-4.5,2.015-4.5,4.5v88.721c0,17.229-11.303,18-12.628,18.029
		c-2.467,0.021-4.46,2.027-4.46,4.5c0,2.484,2.016,4.5,4.5,4.5c7.467,0,21.588-5.648,21.588-27.029v-88.721
		C293.338,210.64,291.323,208.625,288.838,208.625z"/>
	<circle fill="#2C313B" cx="288.838" cy="194.542" r="5"/>
	<circle fill="#2C313B" cx="271.75" cy="305.458" r="5"/>
	<path fill="#2C313B" d="M360.338,282.375c-3.104,0-5.415-0.85-7.061-2.596c-2.712-2.875-3.249-7.828-3.237-10.139
		c1.948-5.813,3.048-12.486,3.048-19.642c0-23.201-11.53-41.375-26.25-41.375s-26.25,18.174-26.25,41.375s11.53,41.375,26.25,41.375
		c6.525,0,12.421-3.577,16.966-9.574c0.745,1.429,1.684,2.825,2.875,4.101c3.348,3.58,8.07,5.475,13.659,5.475
		c2.485,0,4.5-2.016,4.5-4.5S362.823,282.375,360.338,282.375z M326.838,282.375c-9.351,0-17.25-14.826-17.25-32.375
		s7.899-32.375,17.25-32.375c9.352,0,17.25,14.826,17.25,32.375c0,6.316-1.028,12.277-2.773,17.325
		c-0.031,0.092-0.07,0.179-0.096,0.272C338.099,276.421,332.761,282.375,326.838,282.375z"/>
	<path fill="#2C313B" d="M243.857,223.201c5.9,5.417,8.893,14.433,8.893,26.799c0,2.484,2.016,4.5,4.5,4.5s4.5-2.016,4.5-4.5
		c0-14.99-3.973-26.237-11.807-33.429c-9.673-8.88-21.574-7.975-22.077-7.929c-0.087,0.007-0.167,0.035-0.253,0.048
		c-0.157,0.022-0.311,0.048-0.461,0.086c-0.141,0.036-0.276,0.08-0.411,0.127c-0.142,0.051-0.28,0.104-0.414,0.168
		c-0.132,0.063-0.257,0.132-0.381,0.207c-0.124,0.075-0.244,0.152-0.36,0.237c-0.117,0.086-0.227,0.179-0.334,0.275
		c-0.107,0.096-0.209,0.195-0.307,0.3c-0.097,0.106-0.186,0.216-0.272,0.331c-0.087,0.116-0.17,0.233-0.247,0.357
		c-0.075,0.123-0.142,0.249-0.205,0.378c-0.064,0.13-0.123,0.261-0.174,0.398c-0.052,0.139-0.094,0.28-0.132,0.425
		c-0.037,0.139-0.069,0.279-0.093,0.423c-0.025,0.152-0.038,0.306-0.046,0.462c-0.005,0.088-0.026,0.171-0.026,0.26v73.75
		c0,2.485,2.015,4.5,4.5,4.5s4.5-2.015,4.5-4.5v-68.967C235.822,218.424,240.116,219.767,243.857,223.201z"/>
	<path fill="#2C313B" d="M272.134,291.654c2.376-0.202,4.144-2.221,4.097-4.571c0.002-0.069,0.021-0.138,0.021-0.208v-73.75
		c0-2.485-2.015-4.5-4.5-4.5s-4.5,2.015-4.5,4.5v69.266c-3.073-0.517-7.366-1.859-11.106-5.295
		c-5.9-5.416-8.894-14.433-8.894-26.799c0-2.485-2.015-4.5-4.5-4.5s-4.5,2.015-4.5,4.5c0,14.99,3.972,26.237,11.807,33.43
		c7.892,7.244,17.266,7.975,20.724,7.975C271.563,291.7,272.042,291.663,272.134,291.654z"/>
</g>
</svg>
